<svg width="327" height="502" viewBox="0 0 327 502" fill="none" xmlns="http://www.w3.org/2000/svg">
<g clip-path="url(#clip0_1_16)" filter="url(#filter0_d_1_16)">
<path fill-rule="evenodd" clip-rule="evenodd" d="M131.448 95.768C131.732 95.2783 140.057 90.9227 141.191 99.9948C141.706 104.144 137.247 110.691 136.32 109.711C136.32 109.711 130.701 96.9536 131.448 95.768Z" fill="#ECB20D"/>
<path d="M131.448 95.768C131.732 95.2783 140.057 90.9227 141.191 99.9948C141.706 104.144 137.247 110.691 136.32 109.711C136.32 109.711 130.701 96.9536 131.448 95.768Z" stroke="#010101" stroke-width="0.57" stroke-miterlimit="22.93" stroke-linecap="round"/>
<path fill-rule="evenodd" clip-rule="evenodd" d="M217.402 119.814C205.083 132.34 170.237 165.923 167.583 168.577C167.583 168.577 153.82 143.655 153.82 142.546C153.82 139.789 152.299 141.619 155.572 129.247C156.388 126.533 156.36 123.635 155.49 120.937C154.619 118.239 152.949 115.87 150.701 114.144C143.845 108.113 137.17 111.052 140.392 119.144C141.657 121.499 143.254 123.661 145.134 125.562V132.727C95.3145 116.928 115.005 128.68 118.588 140.82C123.742 158.036 136.861 185.072 140.778 195.124C146.809 210.588 160.675 209.531 180.392 198.629C190.392 193.088 188.124 193.474 200.881 183.912C214.052 173.938 221.5 143.912 217.686 127.856C217.505 127.263 217.402 119.814 217.402 119.814Z" fill="#ECB20D"/>
<path d="M217.402 119.814C205.083 132.34 170.237 165.923 167.583 168.577C167.583 168.577 153.82 143.655 153.82 142.546C153.82 139.789 152.299 141.619 155.572 129.247C156.388 126.533 156.36 123.635 155.49 120.937C154.619 118.239 152.949 115.87 150.701 114.144C143.845 108.113 137.17 111.052 140.392 119.144C141.657 121.499 143.254 123.661 145.134 125.562V132.727C95.3145 116.928 115.005 128.68 118.588 140.82C123.742 158.036 136.861 185.072 140.778 195.124C146.809 210.588 160.675 209.531 180.392 198.629C190.392 193.088 188.124 193.474 200.881 183.912C214.052 173.938 221.5 143.912 217.686 127.856C217.505 127.263 217.402 119.814 217.402 119.814Z" stroke="#010101" stroke-width="0.57" stroke-miterlimit="22.93" stroke-linecap="round"/>
<path d="M123.345 90.2079L104.836 98.0531C101.494 99.4696 99.9331 103.327 101.35 106.669L118.529 147.199C119.945 150.541 123.803 152.102 127.144 150.685L145.654 142.84C148.995 141.424 150.556 137.566 149.14 134.224L131.961 93.6942C130.544 90.3522 126.687 88.7914 123.345 90.2079Z" fill="#010101"/>
<path d="M123.345 90.2079L104.836 98.0531C101.494 99.4696 99.9331 103.327 101.35 106.669L118.529 147.199C119.945 150.541 123.803 152.102 127.144 150.685L145.654 142.84C148.995 141.424 150.556 137.566 149.14 134.224L131.961 93.6942C130.544 90.3522 126.687 88.7914 123.345 90.2079Z" stroke="#010101" stroke-width="0.57" stroke-miterlimit="22.93" stroke-linecap="round"/>
<path fill-rule="evenodd" clip-rule="evenodd" d="M167.66 168.552L172.995 181.103C171.49 177.188 170.848 172.995 171.113 168.809C171.113 168.809 171.835 165.588 171.294 165.665L167.66 168.552Z" fill="#010101"/>
<path d="M167.66 168.552L172.995 181.103C171.49 177.188 170.848 172.995 171.113 168.809C171.113 168.809 171.835 165.588 171.294 165.665L167.66 168.552Z" stroke="#010101" stroke-width="0.57" stroke-linecap="round" stroke-linejoin="round"/>
<path fill-rule="evenodd" clip-rule="evenodd" d="M217.428 121.412L208.742 129.557C203.588 153.448 195.856 167.469 191.835 190.897C196.99 186.619 200.727 183.165 205.881 178.783L217.428 121.412Z" fill="#010101"/>
<path d="M217.428 121.412L208.742 129.557C203.588 153.448 195.856 167.469 191.835 190.897C196.99 186.619 200.727 183.165 205.881 178.783L217.428 121.412Z" stroke="#010101" stroke-width="0.57" stroke-miterlimit="22.93" stroke-linecap="round"/>
<path fill-rule="evenodd" clip-rule="evenodd" d="M203.072 457.675H257.196C257.627 457.694 258.036 457.874 258.341 458.179C258.647 458.485 258.826 458.893 258.845 459.325L261.423 495.82H174.773C173.149 480.536 184.335 475.923 197.531 469.351C202.686 465.562 203.072 457.675 203.072 457.675Z" fill="#DD95C3"/>
<path d="M203.072 457.675H257.196C257.627 457.694 258.036 457.874 258.341 458.179C258.647 458.485 258.826 458.893 258.845 459.325L261.423 495.82H174.773C173.149 480.536 184.335 475.923 197.531 469.351C202.686 465.562 203.072 457.675 203.072 457.675Z" stroke="#010101" stroke-width="0.57" stroke-linecap="round" stroke-linejoin="round"/>
<path d="M262.351 489.995H174.773C173.862 489.995 173.124 490.733 173.124 491.644V499.454C173.124 500.365 173.862 501.103 174.773 501.103H262.351C263.262 501.103 264 500.365 264 499.454V491.644C264 490.733 263.262 489.995 262.351 489.995Z" fill="#DD95C3"/>
<path d="M262.351 489.995H174.773C173.862 489.995 173.124 490.733 173.124 491.644V499.454C173.124 500.365 173.862 501.103 174.773 501.103H262.351C263.262 501.103 264 500.365 264 499.454V491.644C264 490.733 263.262 489.995 262.351 489.995Z" stroke="#010101" stroke-width="0.57" stroke-linecap="round" stroke-linejoin="round"/>
<path fill-rule="evenodd" clip-rule="evenodd" d="M256.371 457.675H310.495C310.926 457.694 311.335 457.874 311.64 458.179C311.946 458.485 312.125 458.893 312.144 459.325L314.722 495.82H228.021C226.397 480.536 237.582 475.923 250.778 469.351C255.985 465.562 256.371 457.675 256.371 457.675Z" fill="#DD95C3"/>
<path d="M256.371 457.675H310.495C310.926 457.694 311.335 457.874 311.64 458.179C311.946 458.485 312.125 458.893 312.144 459.325L314.722 495.82H228.021C226.397 480.536 237.582 475.923 250.778 469.351C255.985 465.562 256.371 457.675 256.371 457.675Z" stroke="#010101" stroke-width="0.57" stroke-linecap="round" stroke-linejoin="round"/>
<path d="M317.325 491.644C317.325 490.733 316.586 489.995 315.675 489.995H271.874H228.072C227.161 489.995 226.423 490.733 226.423 491.644V499.454C226.423 500.365 227.161 501.103 228.072 501.103H315.675C316.586 501.103 317.325 500.365 317.325 499.454V491.644Z" fill="#DD95C3"/>
<path d="M315.675 489.995H228.072C227.161 489.995 226.423 490.733 226.423 491.644V499.454C226.423 500.365 227.161 501.103 228.072 501.103H315.675C316.586 501.103 317.325 500.365 317.325 499.454V491.644C317.325 490.733 316.586 489.995 315.675 489.995Z" stroke="#010101" stroke-width="0.57" stroke-linecap="round" stroke-linejoin="round"/>
<path fill-rule="evenodd" clip-rule="evenodd" d="M218.33 43.7062C218.33 65.768 218.33 65.3814 218.33 87.5206C218.33 145.768 191.835 158.062 190.186 217.985C189.876 228.938 199.67 227.572 201.345 242.289C213.717 245.304 246.809 233.216 259.206 236.232C271.526 233.216 304.103 257.701 316.448 254.686C338.124 159.479 292.376 140.948 292.454 91.3866V43.7835C292.454 -5.10826 218.382 -3.433 218.33 43.7062Z" fill="#ECB20D"/>
<path d="M218.33 43.7062C218.33 65.768 218.33 65.3814 218.33 87.5206C218.33 145.768 191.835 158.062 190.186 217.985C189.876 228.938 199.67 227.572 201.345 242.289C213.717 245.304 246.809 233.216 259.206 236.232C271.526 233.216 304.103 257.701 316.448 254.686C338.124 159.479 292.376 140.948 292.454 91.3866V43.7835C292.454 -5.10826 218.382 -3.433 218.33 43.7062Z" stroke="#010101" stroke-width="0.57" stroke-linecap="round" stroke-linejoin="round"/>
<path fill-rule="evenodd" clip-rule="evenodd" d="M218.33 43.7062C218.33 65.768 218.33 65.3814 218.33 87.5206C218.35 93.9968 217.988 100.468 217.247 106.902H293.974C292.97 101.808 292.461 96.6297 292.454 91.4381V43.8351C292.454 -5.10823 218.381 -3.43299 218.33 43.7062Z" fill="#F6F7F1"/>
<path d="M218.33 43.7062C218.33 65.768 218.33 65.3814 218.33 87.5206C218.35 93.9968 217.988 100.468 217.247 106.902H293.974C292.97 101.808 292.461 96.6297 292.454 91.4381V43.8351C292.454 -5.10823 218.381 -3.43299 218.33 43.7062Z" stroke="#010101" stroke-width="0.57" stroke-linecap="round" stroke-linejoin="round"/>
<path fill-rule="evenodd" clip-rule="evenodd" d="M292.273 39.8144C288.613 -3.66496 222.428 -2.27321 218.51 39.8144H292.273Z" fill="#F14C36"/>
<path d="M292.273 39.8144C288.613 -3.66496 222.428 -2.27321 218.51 39.8144H292.273Z" stroke="#010101" stroke-width="0.57" stroke-linecap="round" stroke-linejoin="round"/>
<path fill-rule="evenodd" clip-rule="evenodd" d="M321.448 216.206C321.448 216.747 321.448 217.289 321.448 217.804C321.938 242.727 313.897 256.464 313.948 279.222C314.103 328.603 315.443 455.485 315.289 458.036H200.057C200.057 458.036 199.052 328.912 199.747 280.51C200.134 254.737 192.66 247.34 189.876 218.088C189.837 217.461 189.837 216.833 189.876 216.206H321.448Z" fill="#436B2C"/>
<path d="M321.448 216.206C321.448 216.747 321.448 217.289 321.448 217.804C321.938 242.727 313.897 256.464 313.948 279.222C314.103 328.603 315.443 455.485 315.289 458.036H200.057C200.057 458.036 199.052 328.912 199.747 280.51C200.134 254.737 192.66 247.34 189.876 218.088C189.837 217.461 189.837 216.833 189.876 216.206H321.448Z" stroke="#010101" stroke-width="0.57" stroke-linecap="round" stroke-linejoin="round"/>
<path fill-rule="evenodd" clip-rule="evenodd" d="M221.603 69.299C222.462 69.3041 223.302 69.0538 224.018 68.58C224.734 68.1062 225.293 67.4302 225.624 66.638C225.955 65.8457 226.043 64.973 225.877 64.1307C225.71 63.2884 225.298 62.5145 224.69 61.9074C224.083 61.3003 223.309 60.8875 222.467 60.7212C221.625 60.555 220.752 60.6429 219.96 60.9738C219.168 61.3047 218.492 61.8636 218.018 62.5796C217.544 63.2956 217.294 64.1363 217.299 64.9948C217.299 66.1364 217.752 67.2311 218.56 68.0383C219.367 68.8455 220.461 69.299 221.603 69.299Z" fill="#010101"/>
<path d="M221.603 69.299C222.462 69.3041 223.302 69.0538 224.018 68.58C224.734 68.1062 225.293 67.4302 225.624 66.638C225.955 65.8457 226.043 64.973 225.877 64.1307C225.71 63.2884 225.298 62.5145 224.69 61.9074C224.083 61.3003 223.309 60.8875 222.467 60.7212C221.625 60.555 220.752 60.6429 219.96 60.9738C219.168 61.3047 218.492 61.8636 218.018 62.5796C217.544 63.2956 217.294 64.1363 217.299 64.9948C217.299 66.1364 217.752 67.2311 218.56 68.0383C219.367 68.8455 220.461 69.299 221.603 69.299Z" stroke="#010101" stroke-width="0.57" stroke-linecap="round" stroke-linejoin="round"/>
<path fill-rule="evenodd" clip-rule="evenodd" d="M257.763 60.768C256.905 60.7629 256.066 61.0125 255.35 61.4852C254.635 61.9578 254.076 62.6323 253.744 63.423C253.413 64.2137 253.323 65.0851 253.487 65.9267C253.651 66.7683 254.062 67.5423 254.666 68.1504C255.271 68.7585 256.042 69.1735 256.883 69.3426C257.723 69.5118 258.595 69.4276 259.388 69.1006C260.181 68.7737 260.859 68.2187 261.335 67.5061C261.812 66.7935 262.067 65.9554 262.067 65.0979C262.07 64.5305 261.962 63.9681 261.747 63.4429C261.532 62.9177 261.216 62.4402 260.815 62.0378C260.415 61.6354 259.94 61.316 259.416 61.0981C258.892 60.8802 258.33 60.768 257.763 60.768V60.768Z" fill="#010101"/>
<path d="M257.763 60.768C256.905 60.7629 256.066 61.0125 255.35 61.4852C254.635 61.9578 254.076 62.6323 253.744 63.423C253.413 64.2137 253.323 65.0851 253.487 65.9267C253.651 66.7683 254.062 67.5423 254.666 68.1504C255.271 68.7585 256.042 69.1735 256.883 69.3426C257.723 69.5118 258.595 69.4276 259.388 69.1006C260.181 68.7737 260.859 68.2187 261.335 67.5061C261.812 66.7935 262.067 65.9554 262.067 65.0979C262.07 64.5305 261.962 63.9681 261.747 63.4429C261.532 62.9177 261.216 62.4402 260.815 62.0378C260.415 61.6354 259.94 61.316 259.416 61.0981C258.892 60.8802 258.33 60.768 257.763 60.768V60.768Z" stroke="#010101" stroke-width="0.57" stroke-linecap="round" stroke-linejoin="round"/>
<path d="M255.881 281.129C255.881 270.588 238.588 271.593 232.247 256.593" stroke="#010101" stroke-width="0.57" stroke-linecap="round" stroke-linejoin="round"/>
<path d="M223.227 48.3711C221.529 48.1353 219.799 48.4042 218.253 49.1443" stroke="#010101" stroke-width="0.57" stroke-miterlimit="22.93" stroke-linecap="round"/>
<path d="M255.933 48.3711C257.631 48.1306 259.362 48.3997 260.907 49.1443" stroke="#010101" stroke-width="0.57" stroke-miterlimit="22.93" stroke-linecap="round"/>
<path fill-rule="evenodd" clip-rule="evenodd" d="M291.758 100.227H218.304C216.92 100.227 215.592 100.777 214.614 101.755C213.635 102.734 213.085 104.062 213.085 105.446C213.085 106.83 213.635 108.158 214.614 109.136C215.592 110.115 216.92 110.665 218.304 110.665H291.758C293.142 110.665 294.469 110.115 295.448 109.136C296.427 108.158 296.977 106.83 296.977 105.446C296.977 104.062 296.427 102.734 295.448 101.755C294.469 100.777 293.142 100.227 291.758 100.227V100.227Z" fill="#ECB20D"/>
<path d="M291.758 100.227H218.304C216.92 100.227 215.592 100.777 214.614 101.755C213.635 102.734 213.085 104.062 213.085 105.446C213.085 106.83 213.635 108.158 214.614 109.136C215.592 110.115 216.92 110.665 218.304 110.665H291.758C293.142 110.665 294.469 110.115 295.448 109.136C296.427 108.158 296.977 106.83 296.977 105.446C296.977 104.062 296.427 102.734 295.448 101.755C294.469 100.777 293.142 100.227 291.758 100.227V100.227Z" stroke="#010101" stroke-width="0.57" stroke-miterlimit="22.93" stroke-linecap="round"/>
<path d="M292.454 39.4278H179.438" stroke="#010101" stroke-width="0.57" stroke-miterlimit="22.93" stroke-linecap="round"/>
<path fill-rule="evenodd" clip-rule="evenodd" d="M217.273 110.33L216.165 114.866C230.487 112.601 244.926 111.155 259.412 110.536L217.273 110.33Z" fill="#010101"/>
<path d="M217.273 110.33L216.165 114.866C230.487 112.601 244.926 111.155 259.412 110.536L217.273 110.33Z" stroke="#010101" stroke-width="0.57" stroke-miterlimit="22.93" stroke-linecap="round"/>
<path fill-rule="evenodd" clip-rule="evenodd" d="M202.634 458.062L201.5 462.598C215.829 460.317 230.277 458.854 244.773 458.216L202.634 458.062Z" fill="#010101"/>
<path d="M202.634 458.062L201.5 462.598C215.829 460.317 230.277 458.854 244.773 458.216L202.634 458.062Z" stroke="#010101" stroke-width="0.57" stroke-miterlimit="22.93" stroke-linecap="round"/>
<path fill-rule="evenodd" clip-rule="evenodd" d="M256.655 458.062L255.521 462.598C269.85 460.315 284.298 458.852 298.794 458.216L256.655 458.062Z" fill="#010101"/>
<path d="M256.655 458.062L255.521 462.598C269.85 460.315 284.298 458.852 298.794 458.216L256.655 458.062Z" stroke="#010101" stroke-width="0.57" stroke-miterlimit="22.93" stroke-linecap="round"/>
<path fill-rule="evenodd" clip-rule="evenodd" d="M219.464 39.2474L218.356 43.8093C232.651 41.5299 247.064 40.0671 261.526 39.4278L219.464 39.2474Z" fill="#010101"/>
<path d="M219.464 39.2474L218.356 43.8093C232.651 41.5299 247.064 40.0671 261.526 39.4278L219.464 39.2474Z" stroke="#010101" stroke-width="0.57" stroke-miterlimit="22.93" stroke-linecap="round"/>
<path fill-rule="evenodd" clip-rule="evenodd" d="M219.696 65.5103C219.631 65.5065 219.565 65.5166 219.504 65.5399C219.443 65.5632 219.388 65.5992 219.341 65.6454C219.295 65.6916 219.259 65.7471 219.236 65.8082C219.213 65.8693 219.202 65.9347 219.206 66C219.206 66.1299 219.258 66.2544 219.35 66.3462C219.441 66.4381 219.566 66.4897 219.696 66.4897C219.824 66.4834 219.945 66.4298 220.035 66.3393C220.126 66.2488 220.179 66.1278 220.186 66C220.186 65.8701 220.134 65.7455 220.042 65.6537C219.95 65.5619 219.826 65.5103 219.696 65.5103V65.5103Z" fill="#010101"/>
<path d="M219.696 65.5103C219.631 65.5065 219.565 65.5166 219.504 65.5399C219.443 65.5632 219.388 65.5992 219.341 65.6454C219.295 65.6916 219.259 65.7471 219.236 65.8082C219.213 65.8693 219.202 65.9347 219.206 66C219.206 66.1299 219.258 66.2544 219.35 66.3462C219.441 66.4381 219.566 66.4897 219.696 66.4897C219.824 66.4834 219.945 66.4298 220.035 66.3393C220.126 66.2488 220.179 66.1278 220.186 66C220.186 65.8701 220.134 65.7455 220.042 65.6537C219.95 65.5619 219.826 65.5103 219.696 65.5103V65.5103Z" stroke="#010101" stroke-width="0.57" stroke-linecap="round" stroke-linejoin="round"/>
<path fill-rule="evenodd" clip-rule="evenodd" d="M255.34 66.5154C255.406 66.5192 255.471 66.5091 255.532 66.4858C255.593 66.4625 255.649 66.4266 255.695 66.3803C255.741 66.3341 255.777 66.2786 255.8 66.2175C255.824 66.1564 255.834 66.0911 255.83 66.0258C255.83 65.8959 255.778 65.7713 255.687 65.6795C255.595 65.5877 255.47 65.5361 255.34 65.5361C255.212 65.5423 255.091 65.5959 255.001 65.6864C254.91 65.777 254.857 65.8979 254.851 66.0258C254.851 66.1556 254.902 66.2802 254.994 66.372C255.086 66.4639 255.21 66.5154 255.34 66.5154V66.5154Z" fill="#010101"/>
<path d="M255.34 66.5154C255.406 66.5192 255.471 66.5091 255.532 66.4858C255.593 66.4625 255.649 66.4266 255.695 66.3803C255.741 66.3341 255.777 66.2786 255.8 66.2175C255.824 66.1564 255.834 66.0911 255.83 66.0258C255.83 65.8959 255.778 65.7713 255.687 65.6795C255.595 65.5877 255.47 65.5361 255.34 65.5361C255.212 65.5423 255.091 65.5959 255.001 65.6864C254.91 65.777 254.857 65.8979 254.851 66.0258C254.851 66.1556 254.902 66.2802 254.994 66.372C255.086 66.4639 255.21 66.5154 255.34 66.5154V66.5154Z" stroke="#010101" stroke-width="0.57" stroke-linecap="round" stroke-linejoin="round"/>
<path d="M255.804 458.139V280.82" stroke="#010101" stroke-width="0.57" stroke-miterlimit="22.93" stroke-linecap="round"/>
<path d="M232.995 55.3041H292.428" stroke="#010101" stroke-width="0.57" stroke-miterlimit="22.93" stroke-linecap="round"/>
<path fill-rule="evenodd" clip-rule="evenodd" d="M241.887 55.3041H269.515V59.1186C269.515 62.7824 268.06 66.2962 265.469 68.8869C262.879 71.4776 259.365 72.933 255.701 72.933C252.037 72.933 248.523 71.4776 245.933 68.8869C243.342 66.2962 241.887 62.7824 241.887 59.1186V55.3041Z" fill="#010101"/>
<path d="M241.887 55.3041H269.515V59.1186C269.515 62.7824 268.06 66.2962 265.469 68.8869C262.879 71.4776 259.365 72.933 255.701 72.933C252.037 72.933 248.523 71.4776 245.933 68.8869C243.342 66.2962 241.887 62.7824 241.887 59.1186V55.3041Z" stroke="#010101" stroke-width="0.57" stroke-miterlimit="22.93" stroke-linecap="round"/>
<path fill-rule="evenodd" clip-rule="evenodd" d="M209.18 55.3041H236.809V59.1186C236.809 62.7824 235.354 66.2962 232.763 68.8869C230.172 71.4776 226.659 72.933 222.995 72.933C219.331 72.933 215.817 71.4776 213.227 68.8869C210.636 66.2962 209.18 62.7824 209.18 59.1186V55.3041Z" fill="#010101"/>
<path d="M209.18 55.3041H236.809V59.1186C236.809 62.7824 235.354 66.2962 232.763 68.8869C230.172 71.4776 226.659 72.933 222.995 72.933C219.331 72.933 215.817 71.4776 213.227 68.8869C210.636 66.2962 209.18 62.7824 209.18 59.1186V55.3041Z" stroke="#010101" stroke-width="0.57" stroke-miterlimit="22.93" stroke-linecap="round"/>
<path d="M262.222 83.4742C263.066 83.036 263.816 82.4344 264.426 81.7045C265.037 80.9745 265.496 80.1305 265.778 79.2216" stroke="#010101" stroke-width="0.57" stroke-miterlimit="22.93" stroke-linecap="round"/>
<path d="M263.253 77.5206C264.022 78.1581 264.92 78.6217 265.885 78.8797C266.851 79.1377 267.86 79.184 268.845 79.0155" stroke="#010101" stroke-width="0.57" stroke-miterlimit="22.93" stroke-linecap="round"/>
<path fill-rule="evenodd" clip-rule="evenodd" d="M155.186 145.845C166.242 151.515 177.84 155.175 190.057 160.691C198.843 164.777 208.07 167.838 217.557 169.814C227.015 171.464 233.021 172.16 240.469 169.505C251.191 165.691 291.603 147.83 294.309 143.01C301.577 130.124 293.33 116.412 278.278 116.232L228.665 139.428L170.314 117.546C162.969 103.371 152.273 111 151.758 110.33L138.381 105.021C134.515 103.474 125.727 100.974 124.593 107.289C123.691 112.237 137.969 116.438 137.969 116.438C128.433 118.552 135.392 126.747 135.392 126.747C130.521 131.18 132.814 135.304 139.773 139.196C144.258 141.773 152.84 144.634 155.237 145.897" fill="#ECB20D"/>
<path d="M278.278 116.232L228.665 139.428L170.314 117.546C162.969 103.371 152.273 111 151.758 110.33L138.381 105.021C134.515 103.474 125.727 100.974 124.593 107.289C123.691 112.237 137.969 116.438 137.969 116.438C128.433 118.552 135.392 126.747 135.392 126.747C130.521 131.18 132.814 135.304 139.773 139.196C144.258 141.773 152.84 144.634 155.237 145.897C166.294 151.567 177.892 155.227 190.108 160.742C198.88 164.807 208.09 167.851 217.557 169.814C227.015 171.464 234.284 171.722 241.68 169.067C252.376 165.253 291.603 147.83 294.309 143.01" stroke="#010101" stroke-width="0.57" stroke-miterlimit="22.93" stroke-linecap="round"/>
<path d="M136.397 115.923L144.825 118.758" stroke="#010101" stroke-width="0.57" stroke-linecap="round" stroke-linejoin="round"/>
<path d="M151.397 110.098L157.428 112.314" stroke="#010101" stroke-width="0.57" stroke-linecap="round" stroke-linejoin="round"/>
<path d="M135.289 126.696L143.51 129.273" stroke="#010101" stroke-width="0.57" stroke-linecap="round" stroke-linejoin="round"/>
<path fill-rule="evenodd" clip-rule="evenodd" d="M104.309 113.732C104.515 114.273 121.345 115.124 116.371 122.546C116.904 122.638 117.429 122.767 117.943 122.933C118.779 123.233 119.498 123.791 119.997 124.526C120.496 125.26 120.749 126.134 120.72 127.022C120.692 127.909 120.383 128.765 119.837 129.466C119.292 130.167 118.539 130.677 117.686 130.923C117.686 130.923 123.072 130.278 122.84 134.582C122.686 139.582 112.351 139.093 109 138.113C107.905 137.912 106.91 137.347 106.175 136.51C105.441 135.672 105.011 134.612 104.954 133.5C104.747 131.335 106.268 133.5 102.222 130.227C98.1753 126.954 101.655 122.675 100.495 121.593C97.634 119.015 95.3402 112.907 102.247 111.155C102.402 111.129 104.309 113.732 104.309 113.732Z" fill="#ECB20D"/>
<path d="M104.309 113.732C104.515 114.273 121.345 115.124 116.371 122.546C116.904 122.638 117.429 122.767 117.943 122.933C118.779 123.233 119.498 123.791 119.997 124.526C120.496 125.26 120.749 126.134 120.72 127.022C120.692 127.909 120.383 128.765 119.837 129.466C119.292 130.167 118.539 130.677 117.686 130.923C117.686 130.923 123.072 130.278 122.84 134.582C122.686 139.582 112.351 139.093 109 138.113C107.905 137.912 106.91 137.347 106.175 136.51C105.441 135.672 105.011 134.612 104.954 133.5C104.747 131.335 106.268 133.5 102.222 130.227C98.1753 126.954 101.655 122.675 100.495 121.593C97.634 119.015 95.3402 112.907 102.247 111.155C102.402 111.129 104.309 113.732 104.309 113.732Z" stroke="#010101" stroke-width="0.57" stroke-miterlimit="22.93" stroke-linecap="round"/>
<path d="M100.495 121.515C101.385 121.974 102.329 122.32 103.304 122.546C107.428 123.537 111.714 123.642 115.881 122.856H116.191" stroke="#010101" stroke-width="0.57" stroke-miterlimit="22.93" stroke-linecap="round"/>
<path d="M104.309 131.67C108.794 131.67 114.619 132.34 118.691 130.536C118.793 130.499 118.888 130.447 118.974 130.381" stroke="#010101" stroke-width="0.57" stroke-miterlimit="22.93" stroke-linecap="round"/>
<path fill-rule="evenodd" clip-rule="evenodd" d="M199.67 165.665L198.304 169.634C208.046 172.211 219.799 174.531 229.902 173.5C237.958 172.384 245.711 169.677 252.711 165.536C255.851 163.652 259.085 161.932 262.402 160.381C261.964 160.381 242.299 171.412 227.557 171.412C223.018 171.369 218.507 170.693 214.155 169.402L199.67 165.665Z" fill="#010101"/>
<path d="M199.67 165.665L198.304 169.634C208.046 172.211 219.799 174.531 229.902 173.5C237.958 172.384 245.711 169.677 252.711 165.536C255.851 163.652 259.085 161.932 262.402 160.381C261.964 160.381 242.299 171.412 227.557 171.412C223.018 171.369 218.507 170.693 214.155 169.402L199.67 165.665Z" stroke="#010101" stroke-width="0.57" stroke-miterlimit="22.93" stroke-linecap="round"/>
<path fill-rule="evenodd" clip-rule="evenodd" d="M18.1237 3.03607L88.6907 32.3144L93.9485 14.8917L18.1237 3.03607Z" fill="#010101"/>
<path d="M18.1237 3.03607L88.6907 32.3144L93.9485 14.8917L18.1237 3.03607Z" stroke="#010101" stroke-width="0.57" stroke-linecap="round" stroke-linejoin="round"/>
<path fill-rule="evenodd" clip-rule="evenodd" d="M33.6392 8.52576L87.299 19.4794L89.0773 32.4948L33.6392 8.52576Z" fill="#85D2D8"/>
<path d="M33.6392 8.52576L87.299 19.4794L89.0773 32.4948L33.6392 8.52576Z" stroke="#010101" stroke-width="0.57" stroke-linecap="round" stroke-linejoin="round"/>
<path fill-rule="evenodd" clip-rule="evenodd" d="M64.4897 32.8041L87.299 19.4794L4.97937 0.896912L64.4897 32.8041Z" fill="#85D2D8"/>
<path d="M64.4897 32.8041L87.299 19.4794L4.97937 0.896912L64.4897 32.8041Z" stroke="#010101" stroke-width="0.57" stroke-linecap="round" stroke-linejoin="round"/>
<path fill-rule="evenodd" clip-rule="evenodd" d="M93.3299 15.2526L116.165 1.90206L4.97937 0.896912L93.3299 15.2526Z" fill="#85D2D8"/>
<path d="M93.3299 15.2526L116.165 1.90206L4.97937 0.896912L93.3299 15.2526Z" stroke="#010101" stroke-width="0.57" stroke-linecap="round" stroke-linejoin="round"/>
<path d="M101.088 19.0928C108.096 21.9892 114.132 26.8266 118.485 33.0361C124.928 42.2371 127.144 64.634 114.567 69.6082C105.572 73.1907 94.4897 59.9948 99.3093 55.8969C105.392 50.7423 114.361 66.6185 113.665 84.5825" stroke="#010101" stroke-width="0.57" stroke-miterlimit="22.93" stroke-linecap="round"/>
</g>
<defs>
<filter id="filter0_d_1_16" x="0" y="0" width="327" height="510" filterUnits="userSpaceOnUse" color-interpolation-filters="sRGB">
<feFlood flood-opacity="0" result="BackgroundImageFix"/>
<feColorMatrix in="SourceAlpha" type="matrix" values="0 0 0 0 0 0 0 0 0 0 0 0 0 0 0 0 0 0 127 0" result="hardAlpha"/>
<feOffset dy="4"/>
<feGaussianBlur stdDeviation="2"/>
<feComposite in2="hardAlpha" operator="out"/>
<feColorMatrix type="matrix" values="0 0 0 0 0 0 0 0 0 0 0 0 0 0 0 0 0 0 0.25 0"/>
<feBlend mode="normal" in2="BackgroundImageFix" result="effect1_dropShadow_1_16"/>
<feBlend mode="normal" in="SourceGraphic" in2="effect1_dropShadow_1_16" result="shape"/>
</filter>
<clipPath id="clip0_1_16">
<rect width="319" height="502" fill="white" transform="translate(4)"/>
</clipPath>
</defs>
</svg>
