<svg width="48" height="48" viewBox="0 0 48 48" fill="none" xmlns="http://www.w3.org/2000/svg">
<path d="M38 4H10C8.4087 4 6.88258 4.63214 5.75736 5.75736C4.63214 6.88258 4 8.4087 4 10V38C4 39.5913 4.63214 41.1174 5.75736 42.2426C6.88258 43.3679 8.4087 44 10 44H38C39.5913 44 41.1174 43.3679 42.2426 42.2426C43.3679 41.1174 44 39.5913 44 38V10C44 8.4087 43.3679 6.88258 42.2426 5.75736C41.1174 4.63214 39.5913 4 38 4ZM40 38C40 38.5304 39.7893 39.0391 39.4142 39.4142C39.0391 39.7893 38.5304 40 38 40H10C9.46957 40 8.96086 39.7893 8.58579 39.4142C8.21071 39.0391 8 38.5304 8 38V10C8 9.46957 8.21071 8.96086 8.58579 8.58579C8.96086 8.21071 9.46957 8 10 8H38C38.5304 8 39.0391 8.21071 39.4142 8.58579C39.7893 8.96086 40 9.46957 40 10V38ZM24 16C22.9391 16 21.9217 16.4214 21.1716 17.1716C20.4214 17.9217 20 18.9391 20 20C20.0042 20.6981 20.191 21.3829 20.5419 21.9863C20.8928 22.5898 21.3954 23.091 22 23.44V30C22 30.5304 22.2107 31.0391 22.5858 31.4142C22.9609 31.7893 23.4696 32 24 32C24.5304 32 25.0391 31.7893 25.4142 31.4142C25.7893 31.0391 26 30.5304 26 30V23.44C26.6046 23.091 27.1072 22.5898 27.4581 21.9863C27.809 21.3829 27.9958 20.6981 28 20C28 18.9391 27.5786 17.9217 26.8284 17.1716C26.0783 16.4214 25.0609 16 24 16Z" fill="#436B2C"/>
</svg>
